<svg width="18" height="14" viewBox="0 0 18 14" fill="none" xmlns="http://www.w3.org/2000/svg">
<path fill-rule="evenodd" clip-rule="evenodd" d="M6.97388 2.56791C5.79028 1.43706 3.87129 1.43706 2.6877 2.56791C1.5041 3.69875 1.5041 5.5322 2.68769 6.66305L8.26062 11.9876C8.66896 12.3778 9.33102 12.3778 9.73937 11.9876L15.3123 6.66307C16.4959 5.53223 16.4959 3.69878 15.3123 2.56793C14.1287 1.43709 12.2097 1.43709 11.0261 2.56793L9.63642 3.89571C9.28494 4.23151 8.7151 4.23151 8.36362 3.89571L6.97388 2.56791ZM1.4149 1.35184C3.30145 -0.450616 6.36013 -0.450613 8.24668 1.35184L9.00002 2.07161L9.75334 1.35187C11.6399 -0.450584 14.6986 -0.450583 16.5851 1.35187C18.4716 3.15433 18.4716 6.07668 16.5851 7.87914L11.0122 13.2037C9.90087 14.2654 8.09911 14.2654 6.98782 13.2037L1.4149 7.87911C-0.471633 6.07665 -0.471634 3.1543 1.4149 1.35184Z" fill="#BB44E4"/>
</svg>
